<svg xmlns="http://www.w3.org/2000/svg" viewBox="0 0 512 512">
  <defs>
    <linearGradient id="bgGrad512" x1="0%" y1="0%" x2="100%" y2="100%">
      <stop offset="0%" style="stop-color:#a855f7;stop-opacity:1" />
      <stop offset="50%" style="stop-color:#ec4899;stop-opacity:1" />
      <stop offset="100%" style="stop-color:#14b8a6;stop-opacity:1" />
    </linearGradient>
  </defs>

  <!-- Background with rounded corners -->
  <rect width="512" height="512" rx="112" fill="url(#bgGrad512)"/>

  <!-- Baby face (simplified and modern) -->
  <circle cx="256" cy="200" r="102" fill="#ffffff" opacity="0.98"/>

  <!-- Eyes -->
  <circle cx="230" cy="192" r="14" fill="#a855f7"/>
  <circle cx="282" cy="192" r="14" fill="#a855f7"/>

  <!-- Cute smile -->
  <path d="M 222 222 Q 256 240 290 222" stroke="#ec4899" stroke-width="9" fill="none" stroke-linecap="round"/>

  <!-- Sparkle/care elements around baby -->
  <circle cx="165" cy="147" r="16" fill="#ffffff" opacity="0.9"/>
  <circle cx="347" cy="147" r="16" fill="#ffffff" opacity="0.9"/>
  <circle cx="187" cy="253" r="11" fill="#ffffff" opacity="0.8"/>
  <circle cx="325" cy="253" r="11" fill="#ffffff" opacity="0.8"/>

  <!-- Growth/nurture symbol (leaf shape) -->
  <path d="M 256 307 Q 200 333 187 387 Q 200 373 256 360 Q 312 373 325 387 Q 312 333 256 307" fill="#ffffff" opacity="0.95"/>

  <!-- Log/tracking dots (representing data points) -->
  <circle cx="133" cy="373" r="13" fill="#ffffff" opacity="0.85"/>
  <circle cx="187" cy="413" r="13" fill="#ffffff" opacity="0.85"/>
  <circle cx="256" cy="435" r="13" fill="#ffffff" opacity="0.85"/>
  <circle cx="325" cy="413" r="13" fill="#ffffff" opacity="0.85"/>
  <circle cx="379" cy="373" r="13" fill="#ffffff" opacity="0.85"/>

  <!-- Connecting line through dots -->
  <path d="M 133 373 L 187 413 L 256 435 L 325 413 L 379 373" stroke="#ffffff" stroke-width="7" fill="none" stroke-linecap="round" opacity="0.6"/>
</svg>
